<svg version="1.0" xmlns="http://www.w3.org/2000/svg" width="800.000000" height="800.000000" viewBox="0 0 800.000000 800.000000" preserveAspectRatio="xMidYMid meet">
  <metadata>
    <rdf:RDF xmlns:rdf="http://www.w3.org/1999/02/22-rdf-syntax-ns#" xmlns:rdfs="http://www.w3.org/2000/01/rdf-schema#" xmlns:dc="http://purl.org/dc/elements/1.1/">
      <rdf:Description dc:format="image/svg+xml" dc:Label="1" dc:ContentProducer="001191330110MACRLGPT8B00000" dc:ProduceID="451807856" dc:ReservedCode1="6uVEye/8KttUEs0CDAVipUb5UBOaHJDcCSIcssJP1iI=" dc:ContentPropagator="001191330110MACRLGPT8B00000" dc:PropagateID="451807856" dc:ReservedCode2="6uVEye/8KttUEs0CDAVipUb5UBOaHJDcCSIcssJP1iI="/>
    </rdf:RDF>
  </metadata>
  <g transform="translate(0.000000,800.000000) scale(0.100000,-0.100000)" fill="#000000" stroke="none">
    <path d="M3110 7281 c-53 -56 -55 -81 -10 -142 50 -67 87 -156 73 -178 -6 -9 -55 -39 -110 -66 -126 -64 -183 -106 -276 -205 -82 -87 -151 -212 -184 -330 -24 -90 -24 -300 0 -390 40 -147 124 -276 235 -360 66 -50 220 -132 275 -145 37 -10 34 -17 -16 -37 -68 -29 -157 -92 -226 -160 -204 -204 -250 -492 -120 -751 36 -70 35 -103 -5 -172 -31 -52 -107 -105 -254 -176 -114 -56 -250 -94 -389 -110 -91 -10 -96 -9 -161 17 -217 88 -463 -7 -597 -231 -117 -196 -97 -423 53 -586 172 -187 456 -224 664 -85 50 33 69 38 214 62 637 102 753 130 932 224 50 27 92 45 92 40 0 -4 -39 -50 -86 -101 -202 -221 -350 -426 -453 -628 -136 -268 -197 -507 -286 -1121 -14 -96 -29 -177 -33 -181 -4 -4 -42 -17 -86 -28 -282 -77 -442 -248 -463 -497 -6 -77 5 -126 38 -168 54 -69 334 -102 709 -84 113 6 216 10 230 10 194 -8 283 9 392 75 142 85 201 191 211 373 5 80 48 306 138 716 63 291 110 409 223 567 87 122 256 301 309 326 73 35 215 25 233 -17 3 -9 8 -77 10 -151 10 -417 108 -720 369 -1146 136 -222 131 -205 95 -308 -39 -110 -51 -173 -51 -270 0 -134 48 -193 181 -225 145 -35 612 -40 727 -8 144 39 205 122 233 316 27 183 -11 454 -97 699 -41 115 -155 334 -283 541 -214 348 -292 554 -319 844 -7 66 -6 106 0 119 15 27 2 89 -43 200 -101 252 -90 415 47 716 138 302 201 429 208 422 4 -4 37 -127 73 -272 89 -367 112 -449 157 -564 62 -160 77 -206 77 -235 0 -14 -13 -63 -30 -108 -61 -169 -31 -291 88 -349 49 -24 58 -25 130 -17 42 4 138 7 212 5 116 -2 149 1 231 22 222 57 321 155 351 345 26 168 -63 700 -168 1004 -48 137 -119 282 -194 397 -69 103 -229 275 -329 353 -109 85 -141 120 -171 186 -44 95 -154 258 -218 322 -149 148 -343 230 -543 230 -79 0 -122 -7 -235 -36 -165 -43 -347 -76 -369 -67 -25 9 -84 103 -77 122 3 9 23 45 43 81 86 150 111 320 70 480 -82 325 -348 539 -751 606 -82 13 -139 16 -272 11 l-167 -5 -46 95 c-25 53 -45 106 -45 118 0 40 -69 105 -111 105 -7 0 -29 -18 -49 -39z m725 -505 c33 -10 71 -28 85 -42 l25 -25 -23 -37 c-60 -97 -75 -143 -80 -241 -5 -116 8 -185 52 -277 45 -93 95 -147 164 -180 78 -38 84 -42 72 -64 -23 -42 -241 -154 -408 -210 -147 -49 -251 -64 -400 -58 -90 4 -131 10 -177 28 l-60 23 30 21 c87 63 131 120 159 209 6 17 9 16 41 -12 58 -51 111 -73 176 -73 98 0 171 34 228 106 41 52 55 99 56 186 0 61 -5 84 -25 124 -25 49 -82 102 -131 123 -129 55 -283 -9 -340 -141 -13 -31 -30 -56 -36 -56 -7 0 -13 4 -13 9 0 19 -90 101 -141 128 -48 25 -65 28 -154 29 -119 1 -122 4 -73 96 42 81 146 185 230 232 86 48 210 93 306 111 101 19 352 14 437 -9z m371 -205 c87 -53 171 -250 147 -347 -12 -52 -59 -84 -122 -84 -80 0 -137 56 -171 168 -35 112 -23 211 31 256 36 31 73 33 115 7z m-646 -391 c42 -42 15 -130 -44 -150 -71 -23 -130 37 -102 104 27 64 104 88 146 46z m-560 -51 c43 -24 80 -83 80 -126 0 -70 -87 -141 -156 -129 -48 9 -123 83 -126 122 -4 79 11 116 54 141 36 19 106 16 148 -8z m1248 -470 c2 -19 -6 -34 -31 -56 -89 -78 -312 -170 -470 -193 -92 -14 -127 -8 -127 20 0 15 12 23 58 35 117 32 241 82 377 152 151 77 188 85 193 42z m977 -70 c104 -23 193 -76 293 -176 l92 -93 0 -55 c0 -52 -2 -56 -38 -80 -95 -63 -260 -85 -368 -48 -128 43 -224 212 -224 393 0 49 10 64 45 72 29 7 141 -1 200 -13z m-451 -71 c3 -13 6 -45 6 -71 0 -74 29 -185 66 -258 39 -73 117 -158 182 -196 23 -14 42 -28 42 -32 0 -24 -496 -55 -730 -46 -329 12 -793 68 -812 97 -4 7 -5 27 -2 43 25 128 40 145 128 145 134 0 357 55 512 125 41 19 124 64 183 100 104 64 111 66 212 80 57 8 118 19 134 24 51 16 72 13 79 -11z m-1429 -242 c19 -14 18 -17 -13 -151 -42 -175 -62 -320 -62 -466 0 -76 -4 -119 -12 -127 -7 -7 -41 -12 -83 -12 -60 0 -82 5 -131 30 -33 16 -71 41 -84 55 -23 24 -23 25 -4 46 16 18 26 20 64 14 100 -15 120 -5 120 61 0 37 -5 47 -35 71 -32 26 -35 33 -35 80 0 29 5 73 12 98 15 55 6 75 -43 91 -18 6 -35 17 -37 23 -11 34 159 154 262 187 53 17 59 17 81 0z m2492 -320 c54 -40 126 -99 161 -131 124 -114 255 -296 322 -449 44 -103 41 -109 -76 -118 -156 -11 -309 -57 -408 -123 -29 -19 -58 -35 -64 -35 -5 0 -16 33 -22 73 -44 270 -98 451 -182 616 -32 63 -56 121 -53 131 3 9 41 33 85 55 45 21 83 42 86 47 14 22 60 3 151 -66z m-2175 -186 c294 -47 407 -55 793 -54 286 0 398 4 495 16 336 45 319 44 337 25 17 -16 16 -21 -6 -85 -41 -119 -205 -454 -231 -473 -36 -25 -185 -47 -415 -60 -362 -20 -1038 20 -1082 64 -45 44 -96 506 -63 568 13 24 21 24 172 -1z m-499 -446 c65 -1 120 -4 123 -6 2 -3 20 -63 39 -134 19 -71 47 -161 61 -201 l26 -72 -72 -68 c-141 -133 -287 -229 -417 -274 -85 -29 -101 -26 -109 19 -26 155 -71 263 -144 347 -22 25 -40 52 -40 59 0 7 24 26 53 41 124 67 201 132 259 220 48 71 67 88 88 79 8 -4 68 -8 133 -10z m3261 -307 c24 -24 43 -89 53 -182 7 -70 -6 -79 -162 -109 -72 -14 -181 -42 -243 -63 -85 -28 -117 -35 -130 -27 -9 6 -36 61 -61 123 -51 130 -49 139 26 185 111 67 221 94 381 95 106 1 114 -1 136 -22z m-2554 -72 c240 -21 719 -30 905 -16 186 13 185 14 161 -89 -9 -40 -16 -101 -16 -136 0 -55 -3 -66 -23 -78 -44 -29 -193 -48 -387 -48 -271 0 -507 37 -735 113 l-99 34 -28 95 c-15 52 -27 102 -28 111 0 24 22 40 50 34 14 -2 104 -12 200 -20z m-1952 -34 c10 -6 5 -14 -22 -30 -77 -48 -162 -167 -196 -276 -7 -22 -16 -44 -20 -48 -7 -8 -20 97 -20 170 0 35 -5 46 -32 67 l-32 25 19 21 c23 26 65 48 120 66 46 15 163 18 183 5z m552 -60 c53 -57 103 -151 124 -234 17 -64 9 -102 -21 -111 -37 -11 -275 -45 -286 -40 -9 3 -12 36 -12 107 0 68 -6 126 -19 175 -18 71 -18 73 0 94 26 29 92 58 133 58 29 0 43 -9 81 -49z m-430 -183 c32 -52 27 -140 -10 -204 -70 -123 -176 -179 -302 -160 -69 10 -77 20 -45 52 21 21 27 36 27 70 0 41 11 56 25 34 10 -16 98 -12 122 5 13 9 25 31 28 53 14 85 74 167 133 181 1 1 11 -14 22 -31z m4472 -155 c15 -13 18 -32 18 -104 0 -48 -5 -100 -11 -116 -27 -72 -117 -123 -216 -123 -79 0 -103 19 -103 83 0 23 -12 69 -26 102 -42 97 -42 113 -3 129 46 19 191 44 263 45 42 1 65 -4 78 -16z m-2785 -27 c122 -38 268 -73 383 -91 162 -25 483 -30 670 -11 l155 17 28 -31 c28 -31 34 -69 28 -165 -3 -49 -21 -69 -91 -105 -147 -74 -305 -104 -540 -104 -252 0 -337 28 -517 171 -97 77 -293 275 -293 296 0 26 29 47 65 47 19 0 69 -11 112 -24z m2253 -172 c11 -32 6 -156 -6 -176 -10 -16 -43 -7 -58 14 -27 39 -15 156 20 191 16 16 33 5 44 -29z m-2428 -176 c62 -56 164 -142 226 -191 61 -49 112 -96 112 -104 0 -8 -35 -51 -78 -96 -195 -205 -314 -409 -372 -638 -29 -115 -33 -118 -118 -95 -165 46 -250 65 -387 87 -102 16 -149 28 -153 38 -16 41 82 352 163 517 82 169 243 399 376 536 38 40 51 48 82 48 32 0 50 -12 149 -102z m1475 -230 c5 -7 19 -60 32 -117 59 -268 128 -422 349 -776 122 -194 229 -411 215 -434 -8 -13 -31 -16 -129 -16 -155 -1 -226 -17 -350 -80 -123 -63 -112 -67 -213 89 -84 130 -178 316 -225 446 -64 177 -106 433 -106 640 0 134 -1 132 80 145 65 10 192 52 264 85 71 34 71 34 83 18z m-2060 -1023 c142 -29 302 -70 351 -90 18 -8 35 -21 39 -30 8 -23 -42 -272 -62 -301 -8 -13 -27 -27 -42 -30 -41 -11 -550 17 -569 31 -14 10 -13 30 14 215 33 225 35 230 105 230 22 0 96 -11 164 -25z m2635 -549 c32 -7 68 -21 82 -30 27 -17 49 -80 44 -124 l-3 -26 -220 3 c-121 1 -265 -3 -319 -8 -55 -5 -104 -7 -109 -4 -12 7 67 87 128 128 107 71 257 94 397 61z m-2887 -90 c18 -13 18 -16 5 -41 -8 -15 -25 -31 -38 -36 -32 -12 -178 -11 -224 1 -42 12 -87 45 -76 56 32 31 296 47 333 20z m525 -36 c29 -16 36 -72 15 -128 -39 -102 -153 -172 -283 -172 -125 0 -141 29 -101 180 23 87 39 116 74 131 26 12 269 3 295 -11z m-1040 -104 c0 -28 55 -79 110 -104 42 -19 85 -27 187 -36 126 -10 163 -22 149 -45 -26 -41 -366 -41 -493 0 -30 10 -33 14 -33 50 0 22 7 56 15 76 25 58 65 95 65 59z m3494 -162 c36 -14 7 -77 -48 -103 -44 -22 -174 -41 -271 -41 -96 0 -313 28 -345 45 -49 25 -40 84 15 98 29 7 631 8 649 1z"/>
    <path d="M5166 5479 c-22 -17 -26 -28 -26 -69 0 -94 47 -158 137 -186 52 -17 55 -16 81 3 47 35 42 90 -12 151 -18 20 -41 51 -50 69 -28 56 -83 69 -130 32z"/>
  </g>
</svg>